<svg xmlns="http://www.w3.org/2000/svg" viewBox="0 0 320 80">
  <style>@import url('https://fonts.googleapis.com/css2?family=Poppins:wght@600&amp;display=swap');</style>
  <g transform="translate(40,40)">
    <g fill="none" stroke="#3F3D9E" stroke-width="6" stroke-linecap="butt" stroke-linejoin="miter">
      <path d="M-11,-29 L-2,-20 L12,-34"/>
      <path d="M-11,-29 L-2,-20 L12,-34" transform="rotate(60)"/>
      <path d="M-11,-29 L-2,-20 L12,-34" transform="rotate(120)"/>
      <path d="M-11,-29 L-2,-20 L12,-34" transform="rotate(180)"/>
      <path d="M-11,-29 L-2,-20 L12,-34" transform="rotate(240)"/>
      <path d="M-11,-29 L-2,-20 L12,-34" transform="rotate(300)"/>
    </g>
    <mask id="hub"><rect x="-14" y="-14" width="28" height="28" fill="#FFFFFF"/><circle r="3.5"/></mask>
    <g fill="#F59E0B" mask="url(#hub)">
      <circle r="8.5"/>
      <rect x="-3" y="-12" width="6" height="6"/>
      <rect x="-3" y="-12" width="6" height="6" transform="rotate(60)"/>
      <rect x="-3" y="-12" width="6" height="6" transform="rotate(120)"/>
      <rect x="-3" y="-12" width="6" height="6" transform="rotate(180)"/>
      <rect x="-3" y="-12" width="6" height="6" transform="rotate(240)"/>
      <rect x="-3" y="-12" width="6" height="6" transform="rotate(300)"/>
    </g>
  </g>
  <text x="84" y="52" fill="#3F3D9E" font-family="Poppins, sans-serif" font-size="34" font-weight="600" letter-spacing="-0.5">cogyard</text>
</svg>
