<svg xmlns="http://www.w3.org/2000/svg" viewBox="0 0 1024 1024">
  <!-- macOS Big Sur icon grid: 824x824 rounded tile centered in a 1024 canvas
       (100px padding), so it reads as a native app icon rather than a full-bleed
       square. cogyard mark = white six-checkmark wheel + amber spark on indigo. -->
  <rect x="100" y="100" width="824" height="824" rx="185" fill="#3F3D9E"/>
  <g transform="translate(512,512) scale(8)">
    <g fill="none" stroke="#FFFFFF" stroke-width="6" stroke-linecap="butt" stroke-linejoin="miter">
      <path d="M-11,-29 L-2,-20 L12,-34"/>
      <path d="M-11,-29 L-2,-20 L12,-34" transform="rotate(60)"/>
      <path d="M-11,-29 L-2,-20 L12,-34" transform="rotate(120)"/>
      <path d="M-11,-29 L-2,-20 L12,-34" transform="rotate(180)"/>
      <path d="M-11,-29 L-2,-20 L12,-34" transform="rotate(240)"/>
      <path d="M-11,-29 L-2,-20 L12,-34" transform="rotate(300)"/>
    </g>
    <path d="M0,-11 Q2,-2 11,0 Q2,2 0,11 Q-2,2 -11,0 Q-2,-2 0,-11 Z" fill="#F59E0B"/>
  </g>
</svg>
